<?xml version="1.0" standalone="no"?>
<!DOCTYPE svg PUBLIC "-//W3C//DTD SVG 20010904//EN"
 "http://www.w3.org/TR/2001/REC-SVG-20010904/DTD/svg10.dtd">
<svg version="1.0" xmlns="http://www.w3.org/2000/svg"
 width="24.000000pt" height="44.000000pt" viewBox="0 0 24.000000 44.000000"
 preserveAspectRatio="xMidYMid meet">
<metadata>
Created by potrace 1.16, written by Peter Selinger 2001-2019
</metadata>
<g transform="translate(0.000000,44.000000) scale(0.100000,-0.100000)"
fill="#000000" stroke="none">
<path d="M200 362 c0 -5 -7 -17 -15 -28 -13 -18 -14 -18 -8 5 l6 24 -54 -29
c-68 -37 -85 -68 -92 -171 -6 -76 -5 -83 12 -83 10 0 24 6 31 14 6 8 17 13 24
10 19 -7 76 44 92 83 17 38 18 105 4 119 -8 8 -6 15 5 24 17 14 20 40 5 40 -5
0 -10 -4 -10 -8z"/>
</g>
</svg>
