<?xml version="1.0" standalone="no"?>
<!DOCTYPE svg PUBLIC "-//W3C//DTD SVG 20010904//EN"
 "http://www.w3.org/TR/2001/REC-SVG-20010904/DTD/svg10.dtd">
<svg version="1.0" xmlns="http://www.w3.org/2000/svg"
 width="84.000000pt" height="78.000000pt" viewBox="0 0 84.000000 78.000000"
 preserveAspectRatio="xMidYMid meet">
<metadata>
Created by potrace 1.16, written by Peter Selinger 2001-2019
</metadata>
<g transform="translate(0.000000,78.000000) scale(0.100000,-0.100000)"
fill="#000000" stroke="none">
<path d="M426 563 c-2 -3 -12 -6 -23 -8 -10 -1 -17 -8 -15 -14 1 -6 -3 -11 -8
-11 -22 0 -100 -85 -100 -110 -1 -63 5 -96 22 -111 10 -9 18 -20 18 -24 0 -6
37 -44 44 -45 1 0 31 -3 67 -6 l66 -6 6 28 c3 16 24 48 46 72 23 23 41 45 42
50 0 4 2 16 5 27 5 22 -15 95 -26 95 -12 0 -50 37 -50 49 0 6 -10 12 -22 12
-13 1 -33 3 -45 4 -12 1 -24 0 -27 -2z m73 -77 c21 -25 24 -81 7 -114 -9 -18
-21 -32 -26 -32 -6 0 -10 -20 -10 -45 0 -40 -2 -45 -22 -45 -13 1 -39 9 -58
18 -27 14 -35 23 -35 45 1 15 -3 27 -7 27 -4 0 -8 14 -8 30 0 17 5 30 13 30
13 0 57 59 57 77 0 24 71 31 89 9z"/>
</g>
</svg>
