<?xml version="1.0" standalone="no"?>
<!DOCTYPE svg PUBLIC "-//W3C//DTD SVG 20010904//EN"
 "http://www.w3.org/TR/2001/REC-SVG-20010904/DTD/svg10.dtd">
<svg version="1.0" xmlns="http://www.w3.org/2000/svg"
 width="512.000000pt" height="512.000000pt" viewBox="0 0 512.000000 512.000000"
 preserveAspectRatio="xMidYMid meet">
<metadata>
Created by potrace 1.16, written by Peter Selinger 2001-2019
</metadata>
<g transform="translate(0.000000,512.000000) scale(0.100000,-0.100000)"
fill="#000000" stroke="none">
<path d="M2315 5113 c-404 -48 -717 -147 -1030 -328 -626 -361 -1075 -971
-1229 -1670 -51 -229 -71 -583 -46 -821 49 -483 236 -942 544 -1334 87 -110
336 -354 450 -439 353 -265 721 -422 1166 -497 130 -22 503 -30 656 -14 408
41 806 183 1145 409 504 335 871 825 1043 1394 44 144 81 331 96 481 16 153 8
526 -14 656 -75 445 -232 813 -497 1166 -85 114 -329 363 -439 450 -194 152
-447 299 -663 384 -189 74 -453 138 -659 160 -89 9 -453 12 -523 3z m559 -338
c402 -60 769 -220 1084 -472 459 -368 757 -912 822 -1498 15 -134 12 -388 -5
-522 -106 -815 -646 -1505 -1412 -1807 -118 -46 -173 -48 -213 -8 l-28 28 -5
395 c-4 318 -8 406 -21 457 -19 73 -65 169 -95 196 -28 25 -27 36 3 36 14 0
74 9 133 21 549 106 813 400 852 948 20 282 -35 498 -172 674 l-45 58 16 57
c26 90 23 304 -6 412 -13 47 -30 96 -39 109 -14 22 -19 23 -83 17 -125 -11
-270 -67 -439 -169 l-94 -57 -111 24 c-172 39 -277 50 -456 50 -182 0 -290
-12 -453 -50 l-108 -26 -82 50 c-173 105 -329 167 -454 178 -67 6 -72 5 -86
-17 -9 -13 -26 -62 -39 -109 -29 -107 -32 -320 -6 -412 l16 -57 -45 -58 c-136
-175 -192 -392 -173 -668 15 -202 47 -331 116 -469 47 -94 90 -151 173 -229
145 -136 361 -228 632 -268 46 -7 86 -14 88 -15 2 -2 -9 -17 -23 -35 -39 -46
-67 -104 -91 -189 l-21 -74 -74 -25 c-102 -33 -249 -34 -330 -3 -83 33 -149
88 -210 177 -119 173 -229 254 -358 262 -82 6 -122 -7 -122 -40 0 -32 14 -48
96 -109 100 -74 145 -133 221 -287 79 -161 138 -228 250 -284 110 -54 201 -71
347 -64 67 4 133 10 149 13 l27 6 0 -208 c0 -183 -3 -212 -18 -230 -43 -54
-100 -57 -220 -10 -858 331 -1432 1163 -1432 2077 0 362 70 667 224 984 123
252 261 441 467 641 364 352 830 563 1356 614 116 11 370 3 497 -15z"/>
</g>
</svg>
