<?xml version="1.0" standalone="no"?>
<!DOCTYPE svg PUBLIC "-//W3C//DTD SVG 20010904//EN"
 "http://www.w3.org/TR/2001/REC-SVG-20010904/DTD/svg10.dtd">
<svg version="1.0" xmlns="http://www.w3.org/2000/svg"
 width="512.000000pt" height="512.000000pt" viewBox="0 0 512.000000 512.000000"
 preserveAspectRatio="xMidYMid meet">
<metadata>
Created by potrace 1.16, written by Peter Selinger 2001-2019
</metadata>
<g transform="translate(0.000000,512.000000) scale(0.100000,-0.100000)"
fill="#000000" stroke="none">
<path d="M248 5104 c-60 -18 -142 -80 -184 -139 -70 -99 -64 103 -62 -2420 l3
-2280 28 -57 c35 -71 104 -140 176 -176 l56 -27 2295 0 2295 0 57 28 c72 35
138 99 175 168 l28 54 0 2305 0 2305 -27 51 c-36 69 -106 137 -176 171 l-57
28 -2280 2 c-1957 1 -2287 0 -2327 -13z m1014 -859 c108 -12 224 -89 282 -187
131 -225 11 -505 -248 -574 -126 -34 -294 -8 -393 59 -233 161 -209 533 43
660 63 32 187 58 239 51 11 -2 46 -6 77 -9z m2293 -1055 c375 -43 635 -269
731 -635 45 -170 46 -189 51 -967 l5 -748 -386 0 -385 0 -3 708 c-3 654 -5
711 -22 762 -42 125 -103 208 -185 250 -22 11 -71 25 -110 32 -190 33 -366
-59 -457 -238 l-39 -77 -3 -719 -3 -718 -382 0 -382 0 0 1150 0 1150 383 0
383 0 -3 -165 c-2 -91 0 -165 3 -165 3 0 23 25 43 55 57 82 181 195 261 237
113 59 220 85 390 97 11 0 61 -4 110 -9z m-2005 -1200 l0 -1150 -385 0 -385 0
0 1150 0 1150 385 0 385 0 0 -1150z"/>
</g>
</svg>
